<svg width="131" height="18" viewBox="0 0 131 18" fill="none" xmlns="http://www.w3.org/2000/svg">
<path d="M6.79688 17.2344C5.5625 17.2344 4.5 16.9844 3.60938 16.4844C2.72396 15.9792 2.04167 15.2656 1.5625 14.3437C1.08333 13.4167 0.84375 12.3203 0.84375 11.0547C0.84375 9.82031 1.08333 8.73698 1.5625 7.80469C2.04167 6.8724 2.71615 6.14583 3.58594 5.625C4.46094 5.10417 5.48698 4.84375 6.66406 4.84375C7.45573 4.84375 8.19271 4.97135 8.875 5.22656C9.5625 5.47656 10.1615 5.85417 10.6719 6.35937C11.1875 6.86458 11.5885 7.5 11.875 8.26562C12.1615 9.02604 12.3047 9.91667 12.3047 10.9375V11.8516H2.17188V9.78906H9.17188C9.17188 9.3099 9.06771 8.88542 8.85938 8.51563C8.65104 8.14583 8.36198 7.85677 7.99219 7.64844C7.6276 7.4349 7.20313 7.32812 6.71875 7.32812C6.21354 7.32812 5.76563 7.44531 5.375 7.67969C4.98958 7.90885 4.6875 8.21875 4.46875 8.60937C4.25 8.99479 4.13802 9.42448 4.13281 9.89844V11.8594C4.13281 12.4531 4.24219 12.9661 4.46094 13.3984C4.6849 13.8307 5 14.1641 5.40625 14.3984C5.8125 14.6328 6.29427 14.75 6.85156 14.75C7.22135 14.75 7.5599 14.6979 7.86719 14.5938C8.17448 14.4896 8.4375 14.3333 8.65625 14.125C8.875 13.9167 9.04167 13.6615 9.15625 13.3594L12.2344 13.5625C12.0781 14.3021 11.7578 14.9479 11.2734 15.5C10.7943 16.0469 10.1745 16.474 9.41406 16.7813C8.65885 17.0833 7.78646 17.2344 6.79688 17.2344ZM17.043 5L19.2461 9.19531L21.5039 5H24.918L21.4414 11L25.0117 17H21.6133L19.2461 12.8516L16.918 17H13.4805L17.043 11L13.6055 5H17.043ZM31.9336 17.2344C30.6992 17.2344 29.6367 16.9844 28.7461 16.4844C27.8607 15.9792 27.1784 15.2656 26.6992 14.3437C26.2201 13.4167 25.9805 12.3203 25.9805 11.0547C25.9805 9.82031 26.2201 8.73698 26.6992 7.80469C27.1784 6.8724 27.8529 6.14583 28.7227 5.625C29.5977 5.10417 30.6237 4.84375 31.8008 4.84375C32.5924 4.84375 33.3294 4.97135 34.0117 5.22656C34.6992 5.47656 35.2982 5.85417 35.8086 6.35937C36.3242 6.86458 36.7253 7.5 37.0117 8.26562C37.2982 9.02604 37.4414 9.91667 37.4414 10.9375V11.8516H27.3086V9.78906H34.3086C34.3086 9.3099 34.2044 8.88542 33.9961 8.51563C33.7878 8.14583 33.4987 7.85677 33.1289 7.64844C32.7643 7.4349 32.3398 7.32812 31.8555 7.32812C31.3503 7.32812 30.9023 7.44531 30.5117 7.67969C30.1263 7.90885 29.8242 8.21875 29.6055 8.60937C29.3867 8.99479 29.2747 9.42448 29.2695 9.89844V11.8594C29.2695 12.4531 29.3789 12.9661 29.5977 13.3984C29.8216 13.8307 30.1367 14.1641 30.543 14.3984C30.9492 14.6328 31.431 14.75 31.9883 14.75C32.3581 14.75 32.6966 14.6979 33.0039 14.5938C33.3112 14.4896 33.5742 14.3333 33.793 14.125C34.0117 13.9167 34.1784 13.6615 34.293 13.3594L37.3711 13.5625C37.2148 14.3021 36.8945 14.9479 36.4102 15.5C35.931 16.0469 35.3112 16.474 34.5508 16.7813C33.7956 17.0833 32.9232 17.2344 31.9336 17.2344ZM39.6133 17V5H42.8398V7.09375H42.9648C43.1836 6.34896 43.5508 5.78646 44.0664 5.40625C44.582 5.02083 45.1758 4.82812 45.8477 4.82812C46.0143 4.82812 46.194 4.83854 46.3867 4.85937C46.5794 4.88021 46.7487 4.90885 46.8945 4.94531V7.89844C46.7383 7.85156 46.5221 7.8099 46.2461 7.77344C45.9701 7.73698 45.7174 7.71875 45.4883 7.71875C44.9987 7.71875 44.5612 7.82552 44.1758 8.03906C43.7956 8.2474 43.4935 8.53906 43.2695 8.91406C43.0508 9.28906 42.9414 9.72135 42.9414 10.2109V17H39.6133ZM53.4785 17.2344C52.2493 17.2344 51.1921 16.974 50.3066 16.4531C49.4264 15.9271 48.7493 15.1979 48.2754 14.2656C47.8066 13.3333 47.5723 12.2604 47.5723 11.0469C47.5723 9.81771 47.8092 8.73958 48.2832 7.8125C48.7624 6.88021 49.4421 6.15365 50.3223 5.63281C51.2025 5.10677 52.2493 4.84375 53.4629 4.84375C54.5098 4.84375 55.4264 5.03385 56.2129 5.41406C56.9993 5.79427 57.6217 6.32812 58.0801 7.01562C58.5384 7.70312 58.791 8.51042 58.8379 9.4375H55.6973C55.6087 8.83854 55.3743 8.35677 54.9941 7.99219C54.6191 7.6224 54.127 7.4375 53.5176 7.4375C53.002 7.4375 52.5514 7.57812 52.166 7.85937C51.7858 8.13542 51.4889 8.53906 51.2754 9.07031C51.0618 9.60156 50.9551 10.2448 50.9551 11C50.9551 11.7656 51.0592 12.4167 51.2676 12.9531C51.4811 13.4896 51.7806 13.8984 52.166 14.1797C52.5514 14.4609 53.002 14.6016 53.5176 14.6016C53.8978 14.6016 54.2389 14.5234 54.541 14.3672C54.8483 14.2109 55.1009 13.9844 55.2988 13.6875C55.502 13.3854 55.6348 13.0234 55.6973 12.6016H58.8379C58.7858 13.5182 58.5358 14.3255 58.0879 15.0234C57.6452 15.7161 57.0332 16.2578 56.252 16.6484C55.4707 17.0391 54.5462 17.2344 53.4785 17.2344ZM60.9688 17V5H64.2969V17H60.9688ZM62.6406 3.45312C62.1458 3.45312 61.7214 3.28906 61.3672 2.96094C61.0182 2.6276 60.8438 2.22917 60.8438 1.76562C60.8438 1.30729 61.0182 0.914062 61.3672 0.585938C61.7214 0.252604 62.1458 0.0859367 62.6406 0.0859367C63.1354 0.0859367 63.5573 0.252604 63.9063 0.585938C64.2604 0.914062 64.4375 1.30729 64.4375 1.76562C64.4375 2.22917 64.2604 2.6276 63.9063 2.96094C63.5573 3.28906 63.1354 3.45312 62.6406 3.45312ZM76.9473 8.42187L73.9004 8.60937C73.8483 8.34896 73.7363 8.11458 73.5645 7.90625C73.3926 7.69271 73.166 7.52344 72.8848 7.39844C72.6087 7.26823 72.278 7.20312 71.8926 7.20312C71.377 7.20312 70.9421 7.3125 70.5879 7.53125C70.2337 7.74479 70.0566 8.03125 70.0566 8.39062C70.0566 8.67708 70.1712 8.91927 70.4004 9.11719C70.6296 9.3151 71.0228 9.47396 71.5801 9.59375L73.752 10.0312C74.9186 10.2708 75.7884 10.6562 76.3613 11.1875C76.9342 11.7187 77.2207 12.4167 77.2207 13.2812C77.2207 14.0677 76.9889 14.7578 76.5254 15.3516C76.0671 15.9453 75.4368 16.4089 74.6348 16.7422C73.8379 17.0703 72.9186 17.2344 71.877 17.2344C70.2884 17.2344 69.0228 16.9036 68.0801 16.2422C67.1426 15.5755 66.5931 14.6693 66.4316 13.5234L69.7051 13.3516C69.804 13.8359 70.0436 14.2057 70.4238 14.4609C70.804 14.7109 71.291 14.8359 71.8848 14.8359C72.4681 14.8359 72.9368 14.724 73.291 14.5C73.6504 14.2708 73.8327 13.9766 73.8379 13.6172C73.8327 13.3151 73.7051 13.0677 73.4551 12.875C73.2051 12.6771 72.8197 12.526 72.2988 12.4219L70.2207 12.0078C69.0488 11.7734 68.1764 11.3672 67.6035 10.7891C67.0358 10.2109 66.752 9.47396 66.752 8.57812C66.752 7.80729 66.9603 7.14323 67.377 6.58594C67.7988 6.02865 68.39 5.59896 69.1504 5.29687C69.916 4.99479 70.8118 4.84375 71.8379 4.84375C73.3535 4.84375 74.5462 5.16406 75.416 5.80469C76.291 6.44531 76.8014 7.31771 76.9473 8.42187ZM84.7852 17.2344C83.5508 17.2344 82.4883 16.9844 81.5977 16.4844C80.7122 15.9792 80.0299 15.2656 79.5508 14.3437C79.0716 13.4167 78.832 12.3203 78.832 11.0547C78.832 9.82031 79.0716 8.73698 79.5508 7.80469C80.0299 6.8724 80.7044 6.14583 81.5742 5.625C82.4492 5.10417 83.4753 4.84375 84.6523 4.84375C85.444 4.84375 86.181 4.97135 86.8633 5.22656C87.5508 5.47656 88.1497 5.85417 88.6602 6.35937C89.1758 6.86458 89.5768 7.5 89.8633 8.26562C90.1497 9.02604 90.293 9.91667 90.293 10.9375V11.8516H80.1602V9.78906H87.1602C87.1602 9.3099 87.056 8.88542 86.8477 8.51563C86.6393 8.14583 86.3503 7.85677 85.9805 7.64844C85.6159 7.4349 85.1914 7.32812 84.707 7.32812C84.2018 7.32812 83.7539 7.44531 83.3633 7.67969C82.9779 7.90885 82.6758 8.21875 82.457 8.60937C82.2383 8.99479 82.1263 9.42448 82.1211 9.89844V11.8594C82.1211 12.4531 82.2305 12.9661 82.4492 13.3984C82.6732 13.8307 82.9883 14.1641 83.3945 14.3984C83.8008 14.6328 84.2826 14.75 84.8398 14.75C85.2096 14.75 85.5482 14.6979 85.8555 14.5938C86.1628 14.4896 86.4258 14.3333 86.6445 14.125C86.8633 13.9167 87.0299 13.6615 87.1445 13.3594L90.2227 13.5625C90.0664 14.3021 89.7461 14.9479 89.2617 15.5C88.7826 16.0469 88.1628 16.474 87.4023 16.7813C86.6471 17.0833 85.7747 17.2344 84.7852 17.2344ZM94.4102 17.2031C93.8945 17.2031 93.4518 17.0208 93.082 16.6562C92.7174 16.2865 92.5352 15.8437 92.5352 15.3281C92.5352 14.8177 92.7174 14.3802 93.082 14.0156C93.4518 13.651 93.8945 13.4687 94.4102 13.4687C94.9102 13.4687 95.3477 13.651 95.7227 14.0156C96.0977 14.3802 96.2852 14.8177 96.2852 15.3281C96.2852 15.6719 96.1966 15.987 96.0195 16.2734C95.8477 16.5547 95.6211 16.7812 95.3398 16.9531C95.0586 17.1198 94.7487 17.2031 94.4102 17.2031ZM99.0176 17V5H102.189V7.11719H102.33C102.58 6.41406 102.997 5.85937 103.58 5.45312C104.163 5.04687 104.861 4.84375 105.674 4.84375C106.497 4.84375 107.197 5.04948 107.775 5.46094C108.354 5.86719 108.739 6.41927 108.932 7.11719H109.057C109.301 6.42969 109.744 5.88021 110.385 5.46875C111.031 5.05208 111.794 4.84375 112.674 4.84375C113.794 4.84375 114.702 5.20052 115.4 5.91406C116.104 6.6224 116.455 7.6276 116.455 8.92969V17H113.135V9.58594C113.135 8.91927 112.958 8.41927 112.604 8.08594C112.249 7.7526 111.807 7.58594 111.275 7.58594C110.671 7.58594 110.2 7.77865 109.861 8.16406C109.523 8.54427 109.354 9.04687 109.354 9.67187V17H106.127V9.51562C106.127 8.92708 105.958 8.45833 105.619 8.10937C105.286 7.76042 104.846 7.58594 104.299 7.58594C103.929 7.58594 103.596 7.67969 103.299 7.86719C103.007 8.04948 102.775 8.30729 102.604 8.64062C102.432 8.96875 102.346 9.35417 102.346 9.79687V17H99.0176ZM124.553 17.2344C123.318 17.2344 122.256 16.9844 121.365 16.4844C120.48 15.9792 119.798 15.2656 119.318 14.3437C118.839 13.4167 118.6 12.3203 118.6 11.0547C118.6 9.82031 118.839 8.73698 119.318 7.80469C119.798 6.8724 120.472 6.14583 121.342 5.625C122.217 5.10417 123.243 4.84375 124.42 4.84375C125.212 4.84375 125.949 4.97135 126.631 5.22656C127.318 5.47656 127.917 5.85417 128.428 6.35937C128.943 6.86458 129.344 7.5 129.631 8.26562C129.917 9.02604 130.061 9.91667 130.061 10.9375V11.8516H119.928V9.78906H126.928C126.928 9.3099 126.824 8.88542 126.615 8.51563C126.407 8.14583 126.118 7.85677 125.748 7.64844C125.383 7.4349 124.959 7.32812 124.475 7.32812C123.969 7.32812 123.521 7.44531 123.131 7.67969C122.745 7.90885 122.443 8.21875 122.225 8.60937C122.006 8.99479 121.894 9.42448 121.889 9.89844V11.8594C121.889 12.4531 121.998 12.9661 122.217 13.3984C122.441 13.8307 122.756 14.1641 123.162 14.3984C123.568 14.6328 124.05 14.75 124.607 14.75C124.977 14.75 125.316 14.6979 125.623 14.5938C125.93 14.4896 126.193 14.3333 126.412 14.125C126.631 13.9167 126.798 13.6615 126.912 13.3594L129.99 13.5625C129.834 14.3021 129.514 14.9479 129.029 15.5C128.55 16.0469 127.93 16.474 127.17 16.7813C126.415 17.0833 125.542 17.2344 124.553 17.2344Z" fill="#89C5CC"/>
</svg>
